<svg id="visual" viewBox="0 0 900 600" width="900" height="600" xmlns="http://www.w3.org/2000/svg" xmlns:xlink="http://www.w3.org/1999/xlink" version="1.1"><rect x="0" y="0" width="900" height="600" fill="#001220"></rect><path d="M0 236L37.5 263.8C75 291.7 150 347.3 225 373.3C300 399.3 375 395.7 450 387.5C525 379.3 600 366.7 675 340.7C750 314.7 825 275.3 862.5 255.7L900 236L900 601L862.5 601C825 601 750 601 675 601C600 601 525 601 450 601C375 601 300 601 225 601C150 601 75 601 37.5 601L0 601Z" fill="#f7770f"></path><path d="M0 408L37.5 413.3C75 418.7 150 429.3 225 413.3C300 397.3 375 354.7 450 346C525 337.3 600 362.7 675 367C750 371.3 825 354.7 862.5 346.3L900 338L900 601L862.5 601C825 601 750 601 675 601C600 601 525 601 450 601C375 601 300 601 225 601C150 601 75 601 37.5 601L0 601Z" fill="#d5670c"></path><path d="M0 402L37.5 401C75 400 150 398 225 402.5C300 407 375 418 450 430.5C525 443 600 457 675 459.5C750 462 825 453 862.5 448.5L900 444L900 601L862.5 601C825 601 750 601 675 601C600 601 525 601 450 601C375 601 300 601 225 601C150 601 75 601 37.5 601L0 601Z" fill="#c25d0b"></path><path d="M0 487L37.5 482.7C75 478.3 150 469.7 225 462C300 454.3 375 447.7 450 452C525 456.3 600 471.7 675 485.3C750 499 825 511 862.5 517L900 523L900 601L862.5 601C825 601 750 601 675 601C600 601 525 601 450 601C375 601 300 601 225 601C150 601 75 601 37.5 601L0 601Z" fill="#d5670c"></path><path d="M0 562L37.5 558.7C75 555.3 150 548.7 225 537C300 525.3 375 508.7 450 504.2C525 499.7 600 507.3 675 510.7C750 514 825 513 862.5 512.5L900 512L900 601L862.5 601C825 601 750 601 675 601C600 601 525 601 450 601C375 601 300 601 225 601C150 601 75 601 37.5 601L0 601Z" fill="#f7770f"></path></svg>